<svg width="16" height="16" viewBox="0 0 16 16" fill="none" xmlns="http://www.w3.org/2000/svg"><path fill-rule="evenodd" clip-rule="evenodd" d="M12.803 4.13807c.2604-.26035.2604-.68246 0-.94281-.2603-.26035-.6824-.26035-.9428 0L7.99914 7.05633 4.13807 3.19526c-.26035-.26035-.68246-.26035-.94281 0-.26035.26035-.26035.68246 0 .94281l3.86107 3.86107-3.86107 3.86106c-.26035.2604-.26035.6825 0 .9428.26035.2604.68246.2604.94281 0l3.86107-3.86105L11.8602 12.803c.2604.2604.6825.2604.9428 0 .2604-.2603.2604-.6824 0-.9428L8.94195 7.99914 12.803 4.13807Z" fill="#2D3440"/></svg>